<?xml version="1.0" encoding="UTF-8" standalone="no"?>
<!-- Created with Inkscape (http://www.inkscape.org/) -->

<svg
   xmlns:dc="http://purl.org/dc/elements/1.1/"
   xmlns:cc="http://creativecommons.org/ns#"
   xmlns:rdf="http://www.w3.org/1999/02/22-rdf-syntax-ns#"
   xmlns:svg="http://www.w3.org/2000/svg"
   xmlns="http://www.w3.org/2000/svg"
   xmlns:sodipodi="http://sodipodi.sourceforge.net/DTD/sodipodi-0.dtd"
   xmlns:inkscape="http://www.inkscape.org/namespaces/inkscape"
   width="33.859711mm"
   height="11.242058mm"
   viewBox="0 0 119.97535 39.834063"
   id="svg2"
   version="1.1"
   inkscape:version="0.91 r"
   sodipodi:docname="solucionesTelekom2.svg"
   style="enable-background:new">
  <defs
     id="defs4" />
  <sodipodi:namedview
     id="base"
     pagecolor="#ffffff"
     bordercolor="#666666"
     borderopacity="1.0"
     inkscape:pageopacity="0.0"
     inkscape:pageshadow="2"
     inkscape:zoom="2.8"
     inkscape:cx="66.41488"
     inkscape:cy="14.713006"
     inkscape:document-units="px"
     inkscape:current-layer="layer1"
     showgrid="false"
     inkscape:window-width="1301"
     inkscape:window-height="744"
     inkscape:window-x="65"
     inkscape:window-y="24"
     inkscape:window-maximized="1"
     showguides="true"
     fit-margin-top="0"
     fit-margin-left="0"
     fit-margin-right="0"
     fit-margin-bottom="0"
     inkscape:guide-bbox="true">
    <sodipodi:guide
       position="95.796934,39.787761"
       orientation="0,1"
       id="guide8126" />
    <sodipodi:guide
       position="105.14084,4.1798855"
       orientation="0,1"
       id="guide8128" />
  </sodipodi:namedview>
  <metadata
     id="metadata7">
    <rdf:RDF>
      <cc:Work
         rdf:about="">
        <dc:format>image/svg+xml</dc:format>
        <dc:type
           rdf:resource="http://purl.org/dc/dcmitype/StillImage" />
        <dc:title></dc:title>
      </cc:Work>
    </rdf:RDF>
  </metadata>
  <g
     inkscape:label="Capa 1"
     inkscape:groupmode="layer"
     id="layer1"
     transform="translate(-343.26916,-436.58061)">
    <g
       id="g8323"
       transform="matrix(0.66316913,0,0,0.66195731,115.6255,161.05342)">
      <g
         transform="matrix(0.87263658,0,0,1.0207935,47.46812,-5.5947925)"
         id="g8287">
        <g
           id="g8110"
           transform="matrix(0.62305242,0,0,0.58387928,233.10167,162.24391)"
           style="fill:none;stroke:#888888;stroke-width:2.85455346;stroke-miterlimit:4;stroke-dasharray:none;stroke-opacity:1">
          <path
             sodipodi:nodetypes="sssasszssszzzssssscss"
             inkscape:connector-curvature="0"
             id="path8081"
             d="m 415.18803,529.32382 c 16.12686,0.0324 29.74945,0.24309 33.70618,-0.20743 1.59079,-0.18113 2.73804,-2.49884 2.52538,-4.08572 -0.46041,-3.43567 -2.13569,-6.19668 -4.29578,-8.53885 -2.81371,-3.05087 -4.88554,-5.24452 -10.63442,-6.47548 -0.80136,-0.17159 3.1781,-6.8482 3.81581,-6.37294 10.40307,7.75289 20.4517,9.78845 27.33006,9.8725 6.87837,0.084 18.817,-1.11593 19.63485,-5.58926 0.57393,-3.13917 -2.30652,-4.61077 -12.3202,-14.97688 -4.18214,-4.32933 -12.95529,-13.11891 -12.95529,-13.11891 3.78239,-4.17273 5.87423,-5.43945 6.7369,-6.83928 0.86268,-1.39982 0.5997,-4.48692 -0.85838,-5.9254 -1.45808,-1.43848 -3.6744,-2.32435 -6.07717,-0.68681 -2.40277,1.63754 -2.89725,2.98318 -6.92788,6.53059 0,0 -22.7992,-23.13313 -25.1298,-24.74874 -1.46908,-1.01839 -3.99051,-0.90183 -5.17004,1.49131 -2.55539,5.18466 -4.34708,16.42584 -1.92494,26.27481 3.59878,14.63349 10.50177,20.62527 10.3225,20.81861 -6.74617,7.27575 -6.67647,13.41609 -6.67647,13.41609 -6.10632,0.78305 -13.78347,7.73687 -14.61294,15.24204 -0.1927,1.74361 1.57507,3.91586 3.51163,3.91975 z"
             style="opacity:1;fill:none;fill-opacity:1;fill-rule:evenodd;stroke:#888888;stroke-width:2.85459089;stroke-linecap:butt;stroke-linejoin:miter;stroke-miterlimit:4;stroke-dasharray:none;stroke-opacity:1" />
          <path
             sodipodi:nodetypes="szzszzsss"
             inkscape:connector-curvature="0"
             id="path8102"
             d="m 478.78485,455.45927 c -5.38785,-5.7222 -14.29665,-6.16614 -16.12732,-5.3852 -1.83067,0.78094 -3.12868,2.19896 -3.29066,4.15156 -0.16198,1.9526 1.23618,5.03693 3.76006,5.50354 2.60199,0.48105 4.85499,-0.49877 8.73675,3.07193 3.88176,3.57069 3.10357,7.0174 3.52404,8.9976 0.42047,1.98019 2.12614,4.13044 5.09494,4.03249 2.08322,-0.0687 4.32626,-2.06787 4.70623,-4.1173 0.61376,-3.31038 -0.78709,-10.28911 -6.40404,-16.25462 z"
             style="opacity:1;fill:none;fill-opacity:1;fill-rule:evenodd;stroke:#888888;stroke-width:2.85455346;stroke-linecap:butt;stroke-linejoin:miter;stroke-miterlimit:4;stroke-dasharray:none;stroke-opacity:1" />
          <path
             style="opacity:1;fill:none;fill-opacity:1;fill-rule:evenodd;stroke:#888888;stroke-width:2.85455346;stroke-linecap:butt;stroke-linejoin:miter;stroke-miterlimit:4;stroke-dasharray:none;stroke-opacity:1"
             d="m 490.06455,444.32564 c -2.60285,-2.48423 -12.07185,-11.10454 -26.25248,-10.46652 -2.10762,0.0948 -4.08833,1.74476 -4.31816,4.62742 -0.22982,2.88266 1.57531,5.58254 4.78299,5.44641 1.96019,-0.0832 11.55395,0.2314 19.09799,7.75483 7.54405,7.52343 7.5454,16.80541 7.69554,19.57256 0.15014,2.76715 2.63103,4.74455 5.60107,4.36684 3.92464,-0.49911 4.24365,-3.40931 4.46602,-5.05719 0.57452,-4.25749 -1.39071,-17.00332 -11.07297,-26.24435 z"
             id="path8108"
             inkscape:connector-curvature="0"
             sodipodi:nodetypes="sszszzsss" />
        </g>
        <text
           xml:space="preserve"
           style="font-style:normal;font-variant:normal;font-weight:normal;font-stretch:normal;font-size:29.51553535px;line-height:125%;font-family:Acens;-inkscape-font-specification:'Acens, Normal';text-align:start;letter-spacing:0px;word-spacing:0px;writing-mode:lr-tb;text-anchor:start;fill:#35455b;fill-opacity:0.99607843;stroke:none;stroke-width:0.5;stroke-linecap:butt;stroke-linejoin:miter;stroke-miterlimit:4;stroke-dasharray:none;stroke-opacity:1"
           x="337.84506"
           y="438.12479"
           id="text8130"
           sodipodi:linespacing="125%"><tspan
             sodipodi:role="line"
             id="tspan8132"
             x="337.84506"
             y="438.12479"
             style="font-style:normal;font-variant:normal;font-weight:normal;font-stretch:normal;font-size:29.51553535px;line-height:125%;font-family:Acens;-inkscape-font-specification:'Acens, Normal';text-align:start;writing-mode:lr-tb;text-anchor:start;fill:#35455b;fill-opacity:0.99607843;stroke:none;stroke-width:0.5;stroke-miterlimit:4;stroke-dasharray:none;stroke-opacity:1">Soluciones</tspan><tspan
             sodipodi:role="line"
             x="337.84506"
             y="475.0192"
             id="tspan8134"
             style="font-style:normal;font-variant:normal;font-weight:normal;font-stretch:normal;font-size:29.51553535px;line-height:125%;font-family:Acens;-inkscape-font-specification:'Acens, Normal';text-align:start;writing-mode:lr-tb;text-anchor:start;fill:#35455b;fill-opacity:0.99607843;stroke:none;stroke-width:0.5;stroke-miterlimit:4;stroke-dasharray:none;stroke-opacity:1" /></text>
        <text
           xml:space="preserve"
           style="font-style:normal;font-variant:normal;font-weight:normal;font-stretch:normal;font-size:35.29539871px;line-height:125%;font-family:'Abyssinica SIL';-inkscape-font-specification:'Abyssinica SIL, Normal';text-align:start;letter-spacing:0px;word-spacing:0px;writing-mode:lr-tb;text-anchor:start;fill:#35455b;fill-opacity:0.99607843;stroke:none;stroke-width:1px;stroke-linecap:butt;stroke-linejoin:miter;stroke-opacity:1"
           x="344.25558"
           y="471.97311"
           id="text8138"
           sodipodi:linespacing="125%"><tspan
             sodipodi:role="line"
             id="tspan8140"
             x="344.25558"
             y="471.97311"
             style="font-style:normal;font-variant:normal;font-weight:normal;font-stretch:normal;font-size:35.29539871px;line-height:125%;font-family:Acens;-inkscape-font-specification:'Acens, Normal';text-align:start;writing-mode:lr-tb;text-anchor:start;fill:#35455b;fill-opacity:0.99607843">  eleKom</tspan></text>
        <path
           sodipodi:nodetypes="ccccccccccccccc"
           inkscape:connector-curvature="0"
           id="path8230"
           d="m 358.52024,466.56735 0,3.85677 c -14.57491,3.95776 -15.27165,-4.57073 -15.64629,-4.64566 l 2e-5,-11.26358 -3.26513,0 0,-6.53027 c 5.87285,0.41216 5.71943,-6.99731 5.71943,-6.99731 l 6.25979,0 0.0922,7.07964 5.39386,0 -3e-5,6.19028 -5.27431,0 0.0144,8.97924 6.70555,0 z"
           style="opacity:1;fill:none;fill-opacity:1;fill-rule:evenodd;stroke:#35445a;stroke-width:1.27624702;stroke-linecap:butt;stroke-linejoin:miter;stroke-miterlimit:4;stroke-dasharray:none;stroke-opacity:0.99607843" />
        <ellipse
           ry="3.3954768"
           rx="3.2648814"
           cy="464.35291"
           cx="356.94092"
           id="ellipse8244"
           style="opacity:1;fill:#888888;fill-opacity:1;stroke:#ffffff;stroke-width:1.69830787;stroke-linecap:butt;stroke-linejoin:round;stroke-miterlimit:4;stroke-dasharray:none;stroke-dashoffset:0;stroke-opacity:1" />
        <ellipse
           style="opacity:1;fill:#888888;fill-opacity:1;stroke:#ffffff;stroke-width:1.69830787;stroke-linecap:butt;stroke-linejoin:round;stroke-miterlimit:4;stroke-dasharray:none;stroke-dashoffset:0;stroke-opacity:1"
           id="ellipse8266"
           cx="416.40521"
           cy="417.47791"
           rx="3.2648814"
           ry="3.3954768" />
      </g>
    </g>
  </g>
</svg>
